<?xml version="1.0" encoding="UTF-8" standalone="no"?>
<svg
   sodipodi:docname="26 - Hairdryer.svg"
   inkscape:version="1.1.1 (1:1.1+202109281949+c3084ef5ed)"
   id="svg831"
   version="1.1"
   viewBox="0 0 22.577778 22.577778"
   height="64pt"
   width="64pt"
   inkscape:export-filename="/media/taufikramadhan/Data/Tr Design Studio/Project Design/TR Creative Design/Icon Design/Project Hiring/Icon Icons/009 -  Hotel And Holidays/Send/3 - Flat/SVG/25 - Breakfast.png"
   inkscape:export-xdpi="576"
   inkscape:export-ydpi="576"
   xmlns:inkscape="http://www.inkscape.org/namespaces/inkscape"
   xmlns:sodipodi="http://sodipodi.sourceforge.net/DTD/sodipodi-0.dtd"
   xmlns="http://www.w3.org/2000/svg"
   xmlns:svg="http://www.w3.org/2000/svg"
   xmlns:rdf="http://www.w3.org/1999/02/22-rdf-syntax-ns#"
   xmlns:cc="http://creativecommons.org/ns#"
   xmlns:dc="http://purl.org/dc/elements/1.1/">
  <defs
     id="defs825">
    <pattern
       y="0"
       x="0"
       height="6"
       width="6"
       patternUnits="userSpaceOnUse"
       id="EMFhbasepattern" />
    <pattern
       y="0"
       x="0"
       height="6"
       width="6"
       patternUnits="userSpaceOnUse"
       id="EMFhbasepattern-9" />
    <pattern
       y="0"
       x="0"
       height="6"
       width="6"
       patternUnits="userSpaceOnUse"
       id="EMFhbasepattern-0" />
    <pattern
       y="0"
       x="0"
       height="6"
       width="6"
       patternUnits="userSpaceOnUse"
       id="EMFhbasepattern-7" />
    <pattern
       y="0"
       x="0"
       height="6"
       width="6"
       patternUnits="userSpaceOnUse"
       id="EMFhbasepattern-2" />
    <pattern
       y="0"
       x="0"
       height="6"
       width="6"
       patternUnits="userSpaceOnUse"
       id="EMFhbasepattern-98" />
    <pattern
       y="0"
       x="0"
       height="6"
       width="6"
       patternUnits="userSpaceOnUse"
       id="EMFhbasepattern-6" />
    <pattern
       y="0"
       x="0"
       height="6"
       width="6"
       patternUnits="userSpaceOnUse"
       id="EMFhbasepattern-01" />
    <pattern
       y="0"
       x="0"
       height="6"
       width="6"
       patternUnits="userSpaceOnUse"
       id="EMFhbasepattern-07" />
    <pattern
       y="0"
       x="0"
       height="6"
       width="6"
       patternUnits="userSpaceOnUse"
       id="EMFhbasepattern-8" />
    <pattern
       y="0"
       x="0"
       height="6"
       width="6"
       patternUnits="userSpaceOnUse"
       id="EMFhbasepattern-4" />
    <pattern
       y="0"
       x="0"
       height="6"
       width="6"
       patternUnits="userSpaceOnUse"
       id="EMFhbasepattern-40" />
    <pattern
       y="0"
       x="0"
       height="6"
       width="6"
       patternUnits="userSpaceOnUse"
       id="EMFhbasepattern-08" />
    <pattern
       y="0"
       x="0"
       height="6"
       width="6"
       patternUnits="userSpaceOnUse"
       id="EMFhbasepattern-04" />
    <pattern
       y="0"
       x="0"
       height="6"
       width="6"
       patternUnits="userSpaceOnUse"
       id="EMFhbasepattern-014" />
    <pattern
       y="0"
       x="0"
       height="6"
       width="6"
       patternUnits="userSpaceOnUse"
       id="EMFhbasepattern-27" />
    <pattern
       y="0"
       x="0"
       height="6"
       width="6"
       patternUnits="userSpaceOnUse"
       id="EMFhbasepattern-09" />
    <pattern
       y="0"
       x="0"
       height="6"
       width="6"
       patternUnits="userSpaceOnUse"
       id="EMFhbasepattern-5" />
    <pattern
       y="0"
       x="0"
       height="6"
       width="6"
       patternUnits="userSpaceOnUse"
       id="EMFhbasepattern-018" />
  </defs>
  <sodipodi:namedview
     inkscape:document-rotation="0"
     inkscape:snap-global="true"
     inkscape:snap-nodes="false"
     inkscape:bbox-nodes="true"
     inkscape:snap-bbox="true"
     showguides="false"
     inkscape:snap-midpoints="true"
     inkscape:snap-smooth-nodes="true"
     inkscape:snap-intersection-paths="true"
     inkscape:object-paths="true"
     inkscape:showpageshadow="false"
     inkscape:pagecheckerboard="true"
     inkscape:window-maximized="1"
     inkscape:window-y="31"
     inkscape:window-x="0"
     inkscape:window-height="705"
     inkscape:window-width="1366"
     units="pt"
     showgrid="false"
     inkscape:current-layer="layer1"
     inkscape:document-units="pt"
     inkscape:cy="43.228498"
     inkscape:cx="39.063252"
     inkscape:zoom="4.4415145"
     inkscape:pageshadow="2"
     inkscape:pageopacity="0.0"
     borderopacity="1.0"
     bordercolor="#666666"
     pagecolor="#ffffff"
     id="base">
    <inkscape:grid
       id="grid1378"
       type="xygrid" />
    <sodipodi:guide
       inkscape:locked="false"
       id="guide1380"
       orientation="78.000048,0"
       position="0.97013831,21.607643" />
    <sodipodi:guide
       inkscape:locked="false"
       id="guide1382"
       orientation="0,78.000005"
       position="0.97013831,0.97013129" />
    <sodipodi:guide
       inkscape:locked="false"
       id="guide1384"
       orientation="-78.000048,0"
       position="21.607639,0.97013129" />
    <sodipodi:guide
       inkscape:locked="false"
       id="guide1386"
       orientation="0,-78.000005"
       position="21.607639,21.607643" />
  </sodipodi:namedview>
  <metadata
     id="metadata828">
    <rdf:RDF>
      <cc:Work
         rdf:about="">
        <dc:format>image/svg+xml</dc:format>
        <dc:type
           rdf:resource="http://purl.org/dc/dcmitype/StillImage" />
      </cc:Work>
    </rdf:RDF>
  </metadata>
  <g
     transform="translate(0,-274.42223)"
     id="layer1"
     inkscape:groupmode="layer"
     inkscape:label="Icon">
    <g
       id="g437509"
       style="display:inline;stroke-width:0.794878"
       transform="matrix(1.2580544,0,0,1.2580544,39.011543,-192.40315)">
      <path
         style="color:#000000;fill:#ffa726;stroke-width:0.794878;stroke-linecap:round;stroke-linejoin:round;stroke-miterlimit:1.5;-inkscape-stroke:none"
         d="m -29.974609,380.70117 a 0.2645835,0.2645835 0 0 0 -0.263672,0.26367 0.2645835,0.2645835 0 0 0 0.263672,0.26563 h 1.058593 a 0.2645835,0.2645835 0 0 0 0.265625,-0.26563 0.2645835,0.2645835 0 0 0 -0.265625,-0.26367 z"
         id="path62675" />
      <path
         style="color:#000000;fill:#ffa726;stroke-width:0.794878;stroke-linecap:round;stroke-linejoin:round;stroke-miterlimit:1.5;-inkscape-stroke:none"
         d="m -29.974609,382.81836 a 0.2645835,0.2645835 0 0 0 -0.263672,0.26367 0.2645835,0.2645835 0 0 0 0.263672,0.26563 h 1.058593 a 0.2645835,0.2645835 0 0 0 0.265625,-0.26563 0.2645835,0.2645835 0 0 0 -0.265625,-0.26367 z"
         id="path62757" />
      <path
         style="color:#000000;fill:#d0e2ee;stroke-width:0.794878;stroke-linecap:round;stroke-linejoin:round;stroke-miterlimit:1.5;-inkscape-stroke:none"
         d="m -24.681641,381.75977 a 0.2645835,0.2645835 0 0 0 -0.265625,0.26367 0.2645835,0.2645835 0 0 0 0.265625,0.26562 h 0.529297 c 0.295385,0 0.529296,0.23391 0.529297,0.5293 v 2.64453 c 2e-6,1.45812 1.186413,2.64648 2.644531,2.64648 h 0.115235 c 1.377766,0.0893 2.572806,-0.96012 2.662109,-2.33789 a 0.2645835,0.2645835 0 0 0 -0.246094,-0.28125 0.2645835,0.2645835 0 0 0 -0.28125,0.2461 c -0.07081,1.09238 -1.007227,1.91455 -2.099609,1.84375 a 0.26460996,0.26460996 0 0 0 -0.01758,0 h -0.132813 c -1.172136,0 -2.115232,-0.94505 -2.115234,-2.11719 v -2.64453 c -3e-6,-0.58137 -0.477227,-1.05859 -1.058594,-1.05859 z"
         id="path60019" />
      <path
         style="color:#000000;fill:#612d82;stroke-width:0.794878;stroke-linecap:round;stroke-linejoin:round;stroke-miterlimit:1.5;-inkscape-stroke:none"
         d="m -21.349609,378.36719 a 0.26460996,0.26460996 0 0 0 -0.158203,0.24218 v 3.96875 c 2e-6,0.58137 0.477226,1.0586 1.058593,1.0586 h 0.529297 a 0.26460996,0.26460996 0 0 0 0.263672,-0.23828 l 0.322266,-3.28125 a 0.26460996,0.26460996 0 0 0 -0.08789,-0.22266 l -1.642578,-1.48047 a 0.26460996,0.26460996 0 0 0 -0.285156,-0.0469 z"
         id="path327142" />
      <path
         style="color:#000000;fill:#b557a1;stroke-width:0.794878;stroke-linecap:round;stroke-linejoin:round;stroke-miterlimit:1.5;-inkscape-stroke:none"
         d="m -15.013672,377.02344 -7.429687,0.40429 a 0.26460996,0.26460996 0 0 0 -0.117188,0.49414 c 0,0 2.376953,1.40224 2.376953,3.59766 v 2.91016 c 0,0.87362 0.714272,1.58789 1.587891,1.58789 h 0.263672 c 0.873619,0 1.58789,-0.71427 1.58789,-1.58789 v -2.38086 c 0,-2.51128 1.935547,-4.58008 1.935547,-4.58008 a 0.26460996,0.26460996 0 0 0 -0.205078,-0.44531 z"
         id="path327148" />
      <path
         id="path434921"
         style="color:#000000;fill:#a13f8e;fill-opacity:1;stroke-width:0.794878;stroke-linecap:round;stroke-linejoin:round;stroke-miterlimit:1.5;-inkscape-stroke:none"
         d="m -15.013554,377.02353 -0.412378,0.0222 a 0.26460996,0.26460996 0 0 1 0.08837,0.42323 c 0,0 -1.9358,2.0688 -1.9358,4.58008 v 2.38073 c 0,0.82888 -0.643198,1.51379 -1.455208,1.58182 0.04389,0.004 0.088,0.006 0.132808,0.006 h 0.26355 c 0.873619,0 1.588017,-0.71439 1.588017,-1.58801 v -2.38074 c 0,-2.51128 1.935799,-4.58008 1.935799,-4.58008 a 0.26460996,0.26460996 0 0 0 -0.205155,-0.44545 z" />
      <path
         id="path412630"
         style="fill:#a13f8e;fill-opacity:1;stroke-width:3.00427;stroke-linecap:round;stroke-linejoin:round;stroke-miterlimit:1.5"
         d="m -56.744141,366.45117 -28.082031,1.52735 a 1.0001006,1.0001006 0 0 0 -0.441406,1.86718 c 0,0 1.484746,0.87811 3.248047,2.47657 l 16.527343,1.29687 c 2.169982,0.1702 4.261965,-0.16328 6.166016,-0.89648 1.722922,-2.84258 3.357422,-4.58789 3.357422,-4.58789 a 1.0001006,1.0001006 0 0 0 -0.775391,-1.6836 z"
         transform="matrix(0.26458334,0,0,0.26458334,0,280.06666)" />
      <path
         style="color:#000000;fill:#dd94c1;stroke-width:0.794878;stroke-linecap:round;stroke-linejoin:round;stroke-miterlimit:1.5;-inkscape-stroke:none"
         d="m -17.285156,371.98047 -10.328125,0.80859 a 0.26461046,0.26461046 0 0 0 -0.244141,0.26367 v 4.23438 a 0.26461046,0.26461046 0 0 0 0.244141,0.26367 l 10.328125,0.81055 c 1.856435,0.14561 3.451165,-1.32927 3.451172,-3.19141 -4e-6,-1.86214 -1.594732,-3.33505 -3.451172,-3.18945 z"
         id="path327154" />
      <path
         style="color:#000000;fill:#d0e2ee;stroke-width:0.794878;stroke-linecap:round;stroke-linejoin:round;stroke-miterlimit:1.5;-inkscape-stroke:none"
         d="m -29.427734,372.78906 c -0.298353,0 -0.546875,0.24852 -0.546875,0.54688 v 3.66797 c 0,0.29835 0.248522,0.54687 0.546875,0.54687 h 1.835937 l 0.263672,0.0224 v -4.80642 l -0.263672,0.0223 z"
         id="path327160"
         sodipodi:nodetypes="ssssccccs" />
      <path
         id="path43882"
         style="color:#000000;fill:#5b6571;stroke-width:3.00427;stroke-linecap:round;stroke-linejoin:round;stroke-miterlimit:1.5;-inkscape-stroke:none"
         d="m -113.28906,354.44727 v 2.00195 h 5.0039 a 1.0000006,1.0000006 0 0 0 0.9961,-1.00391 1.0000006,1.0000006 0 0 0 -0.9961,-0.99804 z m 0,4.00195 v 2 h 4 a 1.0000006,1.0000006 0 0 0 1.0039,-1.00391 1.0000006,1.0000006 0 0 0 -1.0039,-0.99609 z m 0,3.99414 v 2 h 5.0039 a 1.0000006,1.0000006 0 0 0 0.9961,-0.99609 1.0000006,1.0000006 0 0 0 -0.9961,-1.00391 z"
         transform="matrix(0.26458334,0,0,0.26458334,0,280.06666)" />
      <path
         style="color:#000000;fill:#d0e2ee;fill-opacity:1;stroke-width:0.794878;stroke-linecap:round;stroke-linejoin:round;stroke-miterlimit:1.5;-inkscape-stroke:none"
         d="m -17.009766,373.58203 c 0.879885,0 1.587891,0.70801 1.587891,1.58789 0,0.87989 -0.708006,1.58789 -1.587891,1.58789 -0.879885,0 -1.585937,-0.708 -1.585937,-1.58789 0,-0.87988 0.706052,-1.58789 1.585937,-1.58789 z"
         id="path328252" />
      <path
         id="path428252"
         style="color:#000000;fill:#90b6da;fill-opacity:1;stroke-width:0.794878;stroke-linecap:round;stroke-linejoin:round;stroke-miterlimit:1.5;-inkscape-stroke:none"
         d="m -17.009815,373.58188 c -0.575674,0 -1.07664,0.30315 -1.354439,0.75913 0.239975,-0.14592 0.522394,-0.22996 0.825273,-0.22996 0.879885,0 1.588016,0.70814 1.588016,1.58802 0,0.3037 -0.08434,0.58715 -0.230993,0.82785 0.456661,-0.27822 0.76016,-0.78083 0.76016,-1.35702 0,-0.87988 -0.708132,-1.58802 -1.588017,-1.58802 z" />
      <path
         id="path327178"
         style="color:#000000;fill:#a13f8e;fill-opacity:1;stroke-width:3.00427;stroke-linecap:round;stroke-linejoin:round;stroke-miterlimit:1.5;-inkscape-stroke:none"
         d="m -64.289062,351.44336 c -4.406428,0 -7.994141,3.59551 -7.994141,8.00195 0,4.40644 3.587713,8.00196 7.994141,8.00196 3.135865,0 5.85907,-1.82263 7.169921,-4.46094 a 1.0000006,1.0000006 0 0 0 0.107422,-0.22461 c 0.463865,-1.01172 0.72461,-2.13416 0.72461,-3.31641 0,-1.18379 -0.261553,-2.30756 -0.726563,-3.32031 a 1.0000006,1.0000006 0 0 0 -0.09766,-0.20703 c -1.308143,-2.6459 -4.036297,-4.47461 -7.177734,-4.47461 z m 0,2 c 1.785285,0 3.382993,0.77294 4.480468,2.00195 h -8.955078 c 1.095385,-1.22891 2.689408,-2.00195 4.47461,-2.00195 z m -5.65625,4.00195 h 11.318359 c 0.219437,0.62506 0.339844,1.29803 0.339844,2 0,0.70198 -0.120407,1.37494 -0.339844,2 h -11.318359 c -0.218888,-0.62506 -0.337891,-1.29802 -0.337891,-2 0,-0.70197 0.119003,-1.37494 0.337891,-2 z m 3.65625,1.00391 a 1.0000006,1.0000006 0 0 0 -0.996094,0.99609 1.0000006,1.0000006 0 0 0 0.996094,1.00391 h 4 a 1.0000006,1.0000006 0 0 0 1.003906,-1.00391 1.0000006,1.0000006 0 0 0 -1.003906,-0.99609 z m -2.47461,4.99805 h 8.953125 c -1.097421,1.22781 -2.694229,2 -4.478515,2 -1.784672,0 -3.379253,-0.77173 -4.47461,-2 z"
         transform="matrix(0.26458334,0,0,0.26458334,0,280.06666)" />
      <path
         style="color:#000000;fill:#b557a1;stroke-width:0.794878;stroke-linecap:round;stroke-linejoin:round;stroke-miterlimit:1.5;-inkscape-stroke:none"
         d="m -19.066406,372.84766 a 0.264584,0.264584 0 0 0 -0.1875,0.0781 c -0.574265,0.57426 -0.92969,1.36896 -0.929688,2.24414 2e-6,0.87519 0.355425,1.67184 0.929688,2.2461 a 0.264584,0.264584 0 0 0 0.373047,0 0.264584,0.264584 0 0 0 0,-0.375 c -0.479101,-0.4791 -0.773436,-1.1389 -0.773438,-1.8711 -2e-6,-0.73219 0.294338,-1.39199 0.773438,-1.87109 a 0.264584,0.264584 0 0 0 0,-0.37305 0.264584,0.264584 0 0 0 -0.185547,-0.0781 z"
         id="circle53015" />
      <path
         style="color:#000000;fill:#b557a1;stroke-width:0.794878;stroke-linecap:round;stroke-linejoin:round;stroke-miterlimit:1.5;-inkscape-stroke:none"
         d="m -26.253906,375.96484 a 0.2645835,0.2645835 0 0 0 -0.279297,0.24805 0.2645835,0.2645835 0 0 0 0.248047,0.2793 l 3.318359,0.20703 a 0.2645835,0.2645835 0 0 0 0.28125,-0.2461 0.2645835,0.2645835 0 0 0 -0.248047,-0.28125 z"
         id="path54011" />
      <path
         style="color:#000000;fill:#b557a1;stroke-width:0.794878;stroke-linecap:round;stroke-linejoin:round;stroke-miterlimit:1.5;-inkscape-stroke:none"
         d="m -26.253906,374.87305 a 0.2645835,0.2645835 0 0 0 -0.279297,0.24804 0.2645835,0.2645835 0 0 0 0.248047,0.28125 l 1.042969,0.0645 a 0.2645835,0.2645835 0 0 0 0.28125,-0.24805 0.2645835,0.2645835 0 0 0 -0.248047,-0.2793 z"
         id="path54093" />
      <path
         style="color:#000000;fill:#dd94c1;stroke-width:0.794878;stroke-linecap:round;stroke-linejoin:round;stroke-miterlimit:1.5;-inkscape-stroke:none"
         d="m -19.353516,378.61328 a 0.2645835,0.2645835 0 0 0 -0.195312,0.0488 0.2645835,0.2645835 0 0 0 -0.05273,0.37109 c 0,0 0.740234,0.98703 0.740234,2.48633 a 0.2645835,0.2645835 0 0 0 0.265625,0.26563 0.2645835,0.2645835 0 0 0 0.263672,-0.26563 c 0,-1.67569 -0.845703,-2.80469 -0.845703,-2.80469 a 0.2645835,0.2645835 0 0 0 -0.175782,-0.10156 z"
         id="path57309" />
      <path
         style="color:#000000;fill:#5b6571;stroke-width:0.794878;stroke-linecap:round;stroke-linejoin:round;stroke-miterlimit:1.5;-inkscape-stroke:none"
         d="m -25.550781,380.96484 c -0.393283,0 -0.71875,0.32547 -0.71875,0.71875 v 0.67969 c 0,0.39328 0.325467,0.71875 0.71875,0.71875 h 0.416015 c 0.393284,0 0.716797,-0.32547 0.716797,-0.71875 v -0.67969 c 0,-0.39328 -0.323513,-0.71875 -0.716797,-0.71875 z"
         id="path327212" />
      <path
         id="path405369"
         style="color:#000000;fill:#143441;fill-opacity:1;stroke-width:3.00427;stroke-linecap:round;stroke-linejoin:round;stroke-miterlimit:1.5;-inkscape-stroke:none"
         d="m -96.638672,381.34766 c -1.45508,0.0376 -2.648437,1.25361 -2.648437,2.71679 v 2.56836 c 0,1.48642 1.230373,2.7168 2.716797,2.7168 h 1.285156 v -8.00195 z"
         transform="matrix(0.26458334,0,0,0.26458334,0,280.06666)"
         sodipodi:nodetypes="csssccc" />
      <path
         style="color:#000000;fill:#d0e2ee;stroke-width:0.794878;stroke-linecap:round;stroke-linejoin:round;stroke-miterlimit:1.5;-inkscape-stroke:none"
         d="m -28.349609,379.91016 c -0.236975,-0.0339 -0.457399,0.0673 -0.601563,0.21875 -0.144164,0.15139 -0.228516,0.3538 -0.228515,0.57226 v 2.64649 c -10e-7,0.21846 0.08435,0.42086 0.228515,0.57226 0.144165,0.1514 0.364572,0.25264 0.601563,0.21875 l 1.853515,-0.26562 c 0.192398,-0.0275 0.37507,-0.10401 0.517578,-0.23828 0.142508,-0.13427 0.238282,-0.33428 0.238282,-0.55274 v -2.11719 c 0,-0.21846 -0.09577,-0.41652 -0.238282,-0.55078 -0.142506,-0.13426 -0.325204,-0.21272 -0.517578,-0.24023 z"
         id="path327218" />
      <path
         id="path398739"
         style="color:#000000;fill:#aabfd0;fill-opacity:1;stroke-width:0.794878;stroke-linecap:round;stroke-linejoin:round;stroke-miterlimit:1.5;-inkscape-stroke:none"
         d="m -28.437542,379.90346 c -0.202917,-10e-4 -0.387519,0.0928 -0.513665,0.22531 -0.08814,0.0926 -0.1539,0.20441 -0.191717,0.32711 0.08329,-0.0224 0.172363,-0.0297 0.264065,-0.0165 l 1.853634,0.26355 c 0.192373,0.0275 0.375293,0.10603 0.517797,0.24029 0.142513,0.13426 0.238229,0.33241 0.238229,0.55087 v 2.11719 c 0,0.0744 -0.01175,0.14668 -0.03204,0.21497 0.119097,-0.0408 0.229741,-0.10335 0.322977,-0.1912 0.14251,-0.13427 0.238228,-0.33448 0.238228,-0.55294 v -2.11718 c 0,-0.21846 -0.09571,-0.41662 -0.238228,-0.55088 -0.142504,-0.13425 -0.325424,-0.21278 -0.517797,-0.24029 l -1.853634,-0.26355 c -0.02962,-0.004 -0.05886,-0.007 -0.08785,-0.007 z" />
      <path
         id="path431830"
         style="color:#000000;fill:#aabfd0;fill-opacity:1;stroke-width:0.794878;stroke-linecap:round;stroke-linejoin:round;stroke-miterlimit:1.5;-inkscape-stroke:none"
         d="m -27.857198,374.99217 v 2.55846 h 0.265618 l 0.263549,0.0227 -1.8e-5,-4.80638 -0.263548,0.0222 h -1.836066 c -0.292653,0 -0.536977,0.23896 -0.546219,0.52968 h 0.443346 a 1.6733375,1.6733375 45 0 1 1.673338,1.67334 z"
         sodipodi:nodetypes="ccccccscc" />
    </g>
  </g>
</svg>
